<svg xmlns="http://www.w3.org/2000/svg" width="17" height="19"><path fill-rule="evenodd" fill="#fff" d="M7.027 12.65c.358.656 1.411 1.236 2.532 1.24 3.337.008 5.608-2.883 5.619-6.766.008-2.932-2.592-5.671-6.557-5.682-4.93-.013-7.427 3.349-7.435 6.159-.004 1.702.668 3.216 2.116 3.784.237.092.45.005.52-.246.05-.174.162-.611.213-.793.071-.249.045-.336-.147-.553-.416-.47-.682-1.08-.68-1.94.007-2.5 1.976-4.733 5.124-4.725 2.787.008 4.313 1.635 4.308 3.801-.008 2.854-1.338 5.257-3.304 5.251-1.085-.002-1.896-.862-1.634-1.91.316-1.251.924-2.602.926-3.505.003-.81-.451-1.489-1.395-1.491-1.11-.003-2.006 1.09-2.01 2.555-.002.934.328 1.568.328 1.568L4.2 14.782c-.184.74-.213 1.557-.188 2.243.403.168.822.307 1.25.424.389-.589.809-1.335 1.027-2.083.127-.441.738-2.716.738-2.716z"/></svg>