<svg xmlns="http://www.w3.org/2000/svg" width="19" height="16"><path fill-rule="evenodd" fill="#fff" d="M17.18 2.707c-.27.147-1.078.443-1.83.515.483-.26 1.2-1.113 1.378-1.792-.465.297-1.533.728-2.059.727a3.284 3.284 0 00-2.38-1.028 3.303 3.303 0 00-3.226 4.034h-.001c-2.47-.071-5.17-1.319-6.79-3.447-1.005 1.731-.145 3.663.988 4.369-.388.028-1.103-.048-1.439-.378-.026 1.152.523 2.678 2.536 3.237-.389.209-1.076.146-1.374.1.102.973 1.457 2.248 2.943 2.252-.532.612-2.526 1.72-4.76 1.358a9.896 9.896 0 005.156 1.476c5.32.014 9.465-4.296 9.256-9.627l-.001-.019.001-.041-.001-.049a5.697 5.697 0 001.603-1.687z"/></svg>