<svg xmlns="http://www.w3.org/2000/svg" width="27" height="32"><path fill-rule="evenodd" fill="#fff" d="M10.198 10.4c-.002.661.188 1.19.57 1.582.38.393.89.59 1.527.592.661.002 1.181-.187 1.56-.566.378-.378.568-.901.57-1.569l.01-4.026c.002-.595-.189-1.08-.573-1.46-.383-.378-.876-.568-1.48-.57-.661-.001-1.189.177-1.582.533-.393.357-.59.837-.591 1.441l-.011 4.042zm1.51-4.097c0-.17.056-.308.167-.413a.607.607 0 01.434-.156c.192 0 .348.054.466.159a.526.526 0 01.176.413l-.01 4.246c-.001.21-.06.374-.176.493a.627.627 0 01-.47.178c-.194 0-.341-.06-.445-.176-.104-.118-.155-.283-.154-.498l.011-4.246zm-4.99 6.06l1.64.004.012-4.386 1.925-6.178-1.666-.005L7.603 6.02H7.5L6.447 1.792l-1.652-.004L6.73 8.174l-.01 4.188zm9.955.138c.273.001.555-.081.846-.246.29-.165.57-.406.84-.722l-.003.86 1.456.004.021-7.797-1.456-.003-.016 5.918c-.137.17-.287.31-.45.418-.165.11-.3.163-.407.163-.137 0-.236-.042-.297-.125-.06-.082-.09-.216-.09-.401l.016-5.977-1.456-.004-.018 6.517c0 .464.083.813.253 1.045.17.233.424.35.761.35zm8.333 5.825c.005-1.883-1.543-3.415-3.457-3.42-2.73-.12-5.524-.178-8.374-.18-2.85-.014-5.644.03-8.375.136-1.914-.006-3.47 1.518-3.475 3.4a56.101 56.101 0 00-.173 4.474 56.038 56.038 0 00.149 4.474c-.005 1.883 1.543 3.415 3.457 3.42 2.73.12 5.524.178 8.374.18 2.85.013 5.644-.03 8.375-.136 1.913.006 3.47-1.518 3.475-3.4a56.24 56.24 0 00.172-4.474 56.302 56.302 0 00-.148-4.474zM6.335 27.882l-1.64-.004.024-9.035-1.696-.004.004-1.534 5.033.013-.004 1.534-1.697-.004-.024 9.034zm5.833.016l-1.456-.004.002-.86a3.167 3.167 0 01-.84.722c-.29.165-.572.247-.845.246-.337 0-.59-.117-.76-.35-.17-.232-.255-.58-.253-1.045l.017-6.517 1.456.004-.016 5.977c0 .185.03.319.09.401.061.083.16.125.296.125.108 0 .243-.054.407-.163.163-.109.314-.248.45-.418l.017-5.918 1.456.004-.02 7.796zm5.61-1.6c-.001.554-.117.978-.345 1.272-.229.293-.559.44-.99.438-.285 0-.539-.058-.761-.173a1.94 1.94 0 01-.62-.529l-.002.6-1.47-.004.027-10.569 1.47.004-.008 3.402a2.25 2.25 0 01.626-.54c.221-.124.444-.185.67-.185.461.001.813.17 1.054.503.242.333.363.819.361 1.455l-.012 4.326zm5.388-2.086l-2.785-.007-.004 1.47c-.001.41.046.695.142.854.095.159.26.238.491.239.241 0 .41-.066.507-.2.096-.134.145-.43.147-.89l.001-.541 1.499.004-.002.586c-.002.799-.186 1.4-.552 1.803-.366.404-.911.605-1.637.603-.651-.002-1.164-.218-1.537-.647-.373-.43-.56-1.02-.558-1.77l.01-3.5c.001-.677.209-1.228.621-1.653.413-.425.945-.636 1.596-.634.667.001 1.178.2 1.535.595.356.396.534.963.532 1.703l-.006 1.985zm-2.127-2.919c-.231 0-.398.07-.5.211-.1.141-.152.375-.153.701l-.002.79 1.287.003.002-.79c0-.326-.05-.56-.15-.701-.1-.142-.262-.213-.484-.214zm-5.354-.042a.678.678 0 00-.308.076c-.101.05-.202.13-.3.236l-.013 4.86c.118.126.233.218.343.274a.771.771 0 00.352.085c.178 0 .31-.054.393-.163.085-.11.127-.289.128-.537l.01-4.026c.001-.263-.05-.463-.153-.6a.534.534 0 00-.452-.205z"/></svg>